# xmcd CD database file
#
# Track frame offsets:
#	150
#	19810
#	32562
#	51155
#	65248
#	75519
#	91532
#	107273
#	127903
#	152898
#	163478
#	188087
#	193588
#	208965
#	226540
#
# Disc length: 3231 seconds
#
# Revision: 0
# Processed by: cddbd v1.5.2PL0 Copyright (c) Steve Scherf et al.
# Submitted via: CDex 1.70beta2
#
DISCID=bb0c9d0f
DTITLE=Stefano Bollani - arrivano gli alieni
DYEAR=2015
DGENRE=Jazz
TTITLE0=Alleanza
TTITLE1=Quando quando quando
TTITLE2=Sei là
TTITLE3=Aquarela do brasil
TTITLE4=The preacher
TTITLE5=Matilda
TTITLE6=El gato
TTITLE7=Microchip
TTITLE8=Mount Harissa
TTITLE9=Aural
TTITLE10=Vino vino
TTITLE11=Un viaggio
TTITLE12=Jurame
TTITLE13=Arrivano gli alieni
TTITLE14=You don't know what love is
EXTD=YEAR: 2015
EXTT0=
EXTT1=
EXTT2=
EXTT3=
EXTT4=
EXTT5=
EXTT6=
EXTT7=
EXTT8=
EXTT9=
EXTT10=
EXTT11=
EXTT12=
EXTT13=
EXTT14=
PLAYORDER=
